<svg id="Layer_1" data-name="Layer 1" xmlns="http://www.w3.org/2000/svg" viewBox="0 0 443.55 227.42"><defs><style>.cls-1{fill:#fff;}</style></defs><title>logo-white</title><path class="cls-1" d="M68.94,127.74H54.18v-48H68.94Z"/><path class="cls-1" d="M117.4,127.74V105.35c0-1.8-.07-2.23-.43-2.81a3,3,0,0,0-2.59-1.22c-2.74,0-3.89,1.66-3.89,5.69v20.74H97V105.35c0-2.81-1.08-4.25-3.24-4.25s-3.53,1.51-3.53,4.25v22.39H76.78V92h12.6v4.82c2.16-3.74,5.4-5.54,9.94-5.54s7.78,1.8,9.94,5.54c2.66-4,5.76-5.54,10.73-5.54A12,12,0,0,1,128,94c2.38,2.16,3,4.25,3,9.36v24.34Z"/><path class="cls-1" d="M179,127.74V105.35c0-1.8-.07-2.23-.43-2.81a3,3,0,0,0-2.59-1.22c-2.74,0-3.89,1.66-3.89,5.69v20.74H158.58V105.35c0-2.81-1.08-4.25-3.24-4.25s-3.53,1.51-3.53,4.25v22.39H138.34V92h12.6v4.82c2.16-3.74,5.4-5.54,9.94-5.54s7.78,1.8,9.94,5.54c2.67-4,5.76-5.54,10.73-5.54a12,12,0,0,1,8,2.81c2.38,2.16,3,4.25,3,9.36v24.34Z"/><path class="cls-1" d="M213.94,89.36h-14V78.27h14Zm0,38.38h-14V92h14Z"/><path class="cls-1" d="M258.8,93.47c-2.09-.14-2.88-.22-3.38-.22-2.3,0-3.24.29-4,1.37a10.47,10.47,0,0,1,4,8.21c0,6.91-5.91,10.8-16.42,10.8-.43,0-.43,0-2.66-.14H236c-2.45,0-3.46.5-3.46,1.73s.72,1.58,3,1.66l11.45.5c3.46.14,6.48,1.08,8.35,2.66a11.32,11.32,0,0,1,3.82,8.42,10.25,10.25,0,0,1-5.54,9.15c-3.67,1.8-8.14,2.52-15.84,2.52-13.18,0-19.51-3-19.51-9,0-3.24,1.58-5.33,5.11-6.84-2.38-1.8-3.31-3.38-3.31-5.62a7.51,7.51,0,0,1,2.88-5.76,15,15,0,0,1,4-2.16c-4.18-2-5.76-4.25-5.76-8.28,0-7.13,6.48-11.3,17.35-11.3a23.37,23.37,0,0,1,6.7.79c1-5.83,3.75-8.42,8.86-8.42a42,42,0,0,1,5,.29ZM235,127.31a11.65,11.65,0,0,0-1.51-.07c-2.74,0-3.67.58-3.67,2.23,0,2.38,2.74,3.31,9.65,3.31,5.69,0,7.34-.65,7.34-2.81,0-1.58-.86-2.16-3.24-2.3Zm-.65-24.7c0,2.81,1.51,4.39,4.18,4.39s4.18-1.58,4.18-4.32-1.51-4.46-4.1-4.46S234.39,99.88,234.39,102.61Z"/><path class="cls-1" d="M263.26,127.74V92h11.67v7.42c1.73-5.83,4.32-8.06,9.5-8.06a9.56,9.56,0,0,1,1.87.14v12.46a10.08,10.08,0,0,0-2.66-.36c-4.68,0-6.91,2.45-6.91,7.78v16.42Z"/><path class="cls-1" d="M313.38,127.74a20.39,20.39,0,0,1-.5-5c-2.88,4-6.26,5.69-11.52,5.69-7.56,0-12.6-4.25-12.6-10.66,0-5,3.38-9.22,8.93-11a56.4,56.4,0,0,1,14.47-2.3v-.86c0-2.81-1.15-3.89-4.25-3.89s-5,1.3-5.4,3.89l-12.75-1.15c1-3.82,2.3-5.83,5-7.7,3.46-2.45,7.63-3.53,13.61-3.53,7.2,0,12.6,1.8,15.19,5,1.73,2.09,2.09,4,2.09,10.3v14.26a16.77,16.77,0,0,0,1.08,7ZM312.15,111c-6,.65-8.93,2.52-8.93,5.69,0,2,1.3,3.24,3.53,3.24,3.82,0,5.4-2.09,5.4-7.27Z"/><path class="cls-1" d="M353.77,127.74V105.2c0-3.1-.79-4.32-3-4.32-2.66,0-3.89,1.73-3.89,5.33v21.53h-14V92h13v5a9.78,9.78,0,0,1,3.1-3.74,13.58,13.58,0,0,1,7.34-2,12.91,12.91,0,0,1,8.57,3c2.3,2.16,2.88,4.25,2.88,10.58v22.9Z"/><path class="cls-1" d="M397.25,101.1h-7.13v13.18c0,2.74.79,3.67,3.24,3.67a16.92,16.92,0,0,0,3.89-.58v10a41.75,41.75,0,0,1-8.07.79c-4.82,0-7.56-.86-9.72-3-1.8-1.8-2.59-3.67-2.81-6.84-.07-.94-.07-.94-.07-6V101.1h-5.33V92h6l.94-11.45,12.24-.43L390.13,92h7.13Z"/><path class="cls-1" d="M62.89,171.4c1.51,4.18,3.89,5.76,8.93,5.76,3.53,0,5.47-1.08,5.47-3s-1.51-3-5.83-3.82c-5.83-1.15-9.94-2.45-13.11-4.1a12.41,12.41,0,0,1-6.7-11.45c0-9.5,7.78-15.77,19.73-15.77,9.86,0,16.49,4,19.59,11.81l-12.24,3.67c-1.37-3.38-3.67-4.82-7.71-4.82-3,0-4.75,1.15-4.75,3s1.22,2.59,5.33,3.46c8.93,1.87,10.8,2.45,13.9,4.1a13.47,13.47,0,0,1,6.77,12c0,9.79-8.57,16.27-21.53,16.27q-10.48,0-16.63-5.83c-2.45-2.38-3.67-4.54-4.9-8.79Z"/><path class="cls-1" d="M120,161.1h-7.13v13.18c0,2.74.79,3.67,3.24,3.67a16.92,16.92,0,0,0,3.89-.58v10a41.75,41.75,0,0,1-8.07.79c-4.82,0-7.56-.86-9.72-3-1.8-1.8-2.59-3.67-2.81-6.84-.07-.94-.07-.94-.07-6V161.1H94V152h6l.94-11.45,12.24-.43L112.86,152H120Z"/><path class="cls-1" d="M162.1,170c0,10.8-8.28,18.5-19.87,18.5-11.23,0-19.37-7.78-19.37-18.5s8.21-18.72,19.66-18.72C154.18,151.24,162.1,158.8,162.1,170Zm-24.34-.07c0,7.34,1.3,10.08,4.61,10.08a3.64,3.64,0,0,0,3.82-2.38,28.84,28.84,0,0,0,1-8c0-7-1.3-9.58-4.68-9.58S137.77,162.9,137.77,169.88Z"/><path class="cls-1" d="M167.5,187.74V152h11.67v7.42c1.73-5.83,4.32-8.07,9.5-8.07a9.53,9.53,0,0,1,1.87.14v12.46a10.07,10.07,0,0,0-2.66-.36c-4.68,0-6.91,2.45-6.91,7.78v16.42Z"/><path class="cls-1" d="M215.67,190.77c-2.45,6.77-6.34,9.36-14,9.36-1.51,0-1.8,0-7-.36v-9.94a27.16,27.16,0,0,0,5,.43c4.39,0,6.12-.79,6.12-2.74a8.39,8.39,0,0,0-.58-2.38L192.41,152h15L213.29,171,219.49,152h10.22Z"/><path class="cls-1" d="M89.37,76h-7V57.78h-5V52H94.34v5.76h-5Z"/><path class="cls-1" d="M116.73,76h-7.38V66.71h-5.58V76H96.39V52h7.38v8.85h5.58V52h7.38Z"/><path class="cls-1" d="M138.94,76h-18V52h18v5.54h-10.8v3.49h8.75v5.33h-8.75v3.92h10.8Z"/></svg>